<?xml version="1.0" encoding="UTF-8"?>
<svg id="Layer_1" xmlns="http://www.w3.org/2000/svg" version="1.1" viewBox="0 0 213.89 72.22">
  <!-- Generator: Adobe Illustrator 30.2.1, SVG Export Plug-In . SVG Version: 2.1.1 Build 1)  -->
  <defs>
    <style>
      .st0 {
        fill: #231f20;
      }
    </style>
  </defs>
  <path class="st0" d="M67.2,50.52v-25.2h15.52v3.82h-11.34v6.7h10.01v3.74h-10.01v7.13h11.45v3.82h-15.63Z"/>
  <path class="st0" d="M84.69,50.52v-18h3.78l.25,3.31v14.69h-4.03ZM96.89,41.31c0-1.44-.16-2.55-.49-3.33-.32-.78-.78-1.33-1.37-1.64-.59-.31-1.28-.47-2.07-.47-1.34-.02-2.39.42-3.13,1.33-.74.91-1.12,2.22-1.12,3.92h-1.51c0-1.9.28-3.52.83-4.88s1.34-2.39,2.38-3.1c1.03-.71,2.26-1.06,3.67-1.06s2.67.29,3.69.86c1.02.58,1.8,1.47,2.34,2.68s.81,2.79.81,4.73v.94h-4.03v.02ZM96.89,50.52v-9.22h4.03v9.22h-4.03Z"/>
  <path class="st0" d="M116.3,50.95c-2.54,0-4.81-.56-6.79-1.67s-3.53-2.65-4.66-4.61-1.69-4.19-1.69-6.71.56-4.83,1.69-6.79c1.13-1.96,2.68-3.49,4.66-4.61s4.24-1.67,6.79-1.67c1.46,0,2.84.23,4.12.68,1.28.46,2.44,1.07,3.47,1.85s1.87,1.69,2.52,2.72l-3.38,2.16c-.46-.7-1.04-1.32-1.76-1.87-.72-.55-1.51-.98-2.36-1.28-.85-.3-1.72-.45-2.61-.45-1.73,0-3.26.4-4.59,1.19s-2.38,1.88-3.15,3.26c-.77,1.38-1.15,2.98-1.15,4.81s.38,3.36,1.13,4.75c.76,1.39,1.81,2.48,3.17,3.28,1.36.79,2.92,1.19,4.7,1.19,1.39,0,2.64-.29,3.74-.86,1.1-.58,1.97-1.38,2.61-2.41s.95-2.22.95-3.56l4-.5c0,2.28-.49,4.25-1.46,5.92s-2.32,2.95-4.03,3.85-3.69,1.35-5.92,1.35v-.02ZM117.67,40.66v-3.38h10.04v2.81l-2.23.58h-7.81Z"/>
  <path class="st0" d="M139.02,50.95c-1.75,0-3.31-.4-4.66-1.21-1.36-.8-2.42-1.91-3.2-3.33s-1.17-3.05-1.17-4.9.4-3.48,1.19-4.9c.79-1.42,1.88-2.53,3.26-3.33,1.38-.8,2.96-1.21,4.73-1.21,1.61,0,3.06.41,4.36,1.24s2.32,2.02,3.08,3.58c.76,1.56,1.13,3.42,1.13,5.58h-14.15l.54-.5c0,1.1.24,2.06.72,2.86s1.12,1.42,1.91,1.85c.79.43,1.67.65,2.63.65,1.1,0,2.02-.25,2.74-.74s1.28-1.13,1.69-1.93l3.56,1.51c-.5.96-1.15,1.8-1.93,2.52s-1.7,1.27-2.77,1.66c-1.07.38-2.29.58-3.65.58v.02ZM134.37,39.9l-.58-.5h10.15l-.54.5c0-.98-.22-1.79-.65-2.43s-.98-1.12-1.64-1.44-1.35-.49-2.07-.49-1.44.16-2.16.49c-.72.32-1.32.8-1.8,1.44s-.72,1.45-.72,2.43h.01Z"/>
  <path class="st0" d="M149.83,50.52v-18h3.78l.25,3.31v14.69h-4.03ZM162.03,41.31c0-1.44-.16-2.55-.49-3.33-.32-.78-.78-1.33-1.37-1.64-.59-.31-1.28-.47-2.07-.47-1.34-.02-2.39.42-3.13,1.33-.74.91-1.12,2.22-1.12,3.92h-1.51c0-1.9.28-3.52.83-4.88s1.34-2.39,2.38-3.1c1.03-.71,2.26-1.06,3.67-1.06s2.67.29,3.69.86c1.02.58,1.8,1.47,2.34,2.68s.81,2.79.81,4.73v.94h-4.03v.02ZM162.03,50.52v-9.22h4.03v9.22h-4.03Z"/>
  <path class="st0" d="M167.22,50.52l10.04-25.2h4.21l-9.83,25.2h-4.43,0ZM171.94,44.33v-3.71h15.08v3.71h-15.08ZM187.35,50.52l-9.83-25.2h4.18l10.08,25.2h-4.43Z"/>
  <path class="st0" d="M195.05,50.52v-25.2h4.18v25.2h-4.18Z"/>
  <path class="st0" d="M34.27,14.73l-19.61,11.33v22.65l17.61,10.16v-11.91l-5.52-4.2c.06-.23.09-.47.09-.72,0-1.81-1.47-3.28-3.29-3.28s-3.28,1.47-3.28,3.28,1.47,3.29,3.28,3.29c.6,0,1.17-.16,1.65-.45l4.45,3.38v5.42l-11.68-6.74v-18.82l16.3-9.41,16.3,9.41v18.82l-11.67,6.73v-3.25l6.23-3.58v-9.71c1.2-.48,2.05-1.66,2.05-3.03,0-1.82-1.47-3.29-3.28-3.29-.63,0-1.23.18-1.73.5l-5.1-4.58c.08-.29.13-.59.13-.91,0-1.82-1.47-3.29-3.29-3.29s-3.28,1.47-3.28,3.29,1.47,3.28,3.28,3.28c.53,0,1.04-.13,1.48-.35l5.28,4.74c-.04.2-.06.4-.06.61,0,1.31.77,2.44,1.89,2.96v8.11l-6.23,3.5v10.14l3.04-1.69,14.58-8.41v-22.65l-19.62-11.33h0ZM23.55,42.97c-.51,0-.93-.41-.93-.93s.42-.93.93-.93.93.42.93.93-.41.93-.93.93ZM33.91,26.74c-.51,0-.93-.41-.93-.92s.42-.93.93-.93.93.41.93.93-.41.92-.93.92ZM43.9,33.17c.51,0,.93.41.93.93s-.42.92-.93.92-.93-.41-.93-.92.42-.93.93-.93Z"/>
  <path class="st0" d="M34.84,35.81c-.57,0-1.11.15-1.58.41l-4.19-3.63c.08-.27.12-.56.12-.85,0-1.81-1.47-3.29-3.28-3.29s-3.29,1.48-3.29,3.29,1.47,3.28,3.29,3.28c.55,0,1.07-.13,1.52-.37l4.23,3.66c-.07.25-.1.51-.1.78,0,1.82,1.47,3.29,3.28,3.29s3.29-1.47,3.29-3.29-1.47-3.28-3.29-3.28ZM25.91,32.67c-.51,0-.93-.42-.93-.93s.42-.93.93-.93.93.42.93.93-.42.93-.93.93ZM34.84,40.02c-.51,0-.93-.41-.93-.93s.42-.93.93-.93.93.42.93.93-.41.93-.93.93Z"/>
</svg>