<?xml version="1.0" encoding="UTF-8"?>
<svg id="Layer_1" xmlns="http://www.w3.org/2000/svg" version="1.1" viewBox="0 0 256 256">
  <!-- Generator: Adobe Illustrator 30.2.1, SVG Export Plug-In . SVG Version: 2.1.1 Build 1)  -->
  <defs>
    <style>
      .st0 {
        fill: #231f20;
      }
    </style>
  </defs>
  <path class="st0" d="M424.09-75.55v-25.2h15.52v3.82h-11.34v6.7h10.01v3.74h-10.01v7.13h11.45v3.82h-15.63Z"/>
  <path class="st0" d="M441.58-75.55v-18h3.78l.25,3.31v14.69h-4.03ZM453.78-84.76c0-1.44-.16-2.55-.49-3.33-.32-.78-.78-1.33-1.37-1.64-.59-.31-1.28-.47-2.07-.47-1.34-.02-2.39.42-3.13,1.33-.74.91-1.12,2.22-1.12,3.92h-1.51c0-1.9.28-3.52.83-4.88s1.34-2.39,2.38-3.1c1.03-.71,2.26-1.06,3.67-1.06s2.67.29,3.69.86c1.02.58,1.8,1.47,2.34,2.68s.81,2.79.81,4.73v.94h-4.03s0,.02,0,.02ZM453.78-75.55v-9.22h4.03v9.22h-4.03Z"/>
  <path class="st0" d="M473.19-75.12c-2.54,0-4.81-.56-6.79-1.67s-3.53-2.65-4.66-4.61-1.69-4.19-1.69-6.71.56-4.83,1.69-6.79c1.13-1.96,2.68-3.49,4.66-4.61s4.24-1.67,6.79-1.67c1.46,0,2.84.23,4.12.68,1.28.46,2.44,1.07,3.47,1.85s1.87,1.69,2.52,2.72l-3.38,2.16c-.46-.7-1.04-1.32-1.76-1.87-.72-.55-1.51-.98-2.36-1.28-.85-.3-1.72-.45-2.61-.45-1.73,0-3.26.4-4.59,1.19s-2.38,1.88-3.15,3.26c-.77,1.38-1.15,2.98-1.15,4.81s.38,3.36,1.13,4.75c.76,1.39,1.81,2.48,3.17,3.28,1.36.79,2.92,1.19,4.7,1.19,1.39,0,2.64-.29,3.74-.86,1.1-.58,1.97-1.38,2.61-2.41s.95-2.22.95-3.56l4-.5c0,2.28-.49,4.25-1.46,5.92s-2.32,2.95-4.03,3.85-3.69,1.35-5.92,1.35c0,0,0-.02,0-.02ZM474.56-85.41v-3.38h10.04v2.81l-2.23.58h-7.81Z"/>
  <path class="st0" d="M495.92-75.12c-1.75,0-3.31-.4-4.66-1.21-1.36-.8-2.42-1.91-3.2-3.33s-1.17-3.05-1.17-4.9.4-3.48,1.19-4.9c.79-1.42,1.88-2.53,3.26-3.33,1.38-.8,2.96-1.21,4.73-1.21,1.61,0,3.06.41,4.36,1.24s2.32,2.02,3.08,3.58c.76,1.56,1.13,3.42,1.13,5.58h-14.15l.54-.5c0,1.1.24,2.06.72,2.86s1.12,1.42,1.91,1.85c.79.43,1.67.65,2.63.65,1.1,0,2.02-.25,2.74-.74s1.28-1.13,1.69-1.93l3.56,1.51c-.5.96-1.15,1.8-1.93,2.52s-1.7,1.27-2.77,1.66c-1.07.38-2.29.58-3.65.58v.02h-.01ZM491.26-86.17l-.58-.5h10.15l-.54.5c0-.98-.22-1.79-.65-2.43s-.98-1.12-1.64-1.44-1.35-.49-2.07-.49-1.44.16-2.16.49c-.72.32-1.32.8-1.8,1.44s-.72,1.45-.72,2.43h.01Z"/>
  <path class="st0" d="M506.72-75.55v-18h3.78l.25,3.31v14.69h-4.03ZM518.92-84.76c0-1.44-.16-2.55-.49-3.33-.32-.78-.78-1.33-1.37-1.64-.59-.31-1.28-.47-2.07-.47-1.34-.02-2.39.42-3.13,1.33-.74.91-1.12,2.22-1.12,3.92h-1.51c0-1.9.28-3.52.83-4.88s1.34-2.39,2.38-3.1c1.03-.71,2.26-1.06,3.67-1.06s2.67.29,3.69.86c1.02.58,1.8,1.47,2.34,2.68s.81,2.79.81,4.73v.94h-4.03v.02ZM518.92-75.55v-9.22h4.03v9.22h-4.03Z"/>
  <path class="st0" d="M524.11-75.55l10.04-25.2h4.21l-9.83,25.2h-4.43,0ZM528.83-81.74v-3.71h15.08v3.71h-15.08ZM544.25-75.55l-9.83-25.2h4.18l10.08,25.2h-4.43Z"/>
  <path class="st0" d="M551.94-75.55v-25.2h4.18v25.2h-4.18Z"/>
  <path class="st0" d="M126.04,11L22.08,71.06v120.07l93.36,53.86v-63.14l-29.26-22.27c.32-1.22.48-2.49.48-3.82,0-9.6-7.79-17.39-17.44-17.39s-17.39,7.79-17.39,17.39,7.79,17.44,17.39,17.44c3.18,0,6.2-.85,8.75-2.39l23.59,17.92v28.73l-61.92-35.73v-99.77l86.41-49.89,86.41,49.89v99.77l-61.87,35.68v-17.23l33.03-18.98v-51.48c6.36-2.54,10.87-8.8,10.87-16.06,0-9.65-7.79-17.44-17.39-17.44-3.34,0-6.52.95-9.17,2.65l-27.04-24.28c.42-1.54.69-3.13.69-4.82,0-9.65-7.79-17.44-17.44-17.44s-17.39,7.79-17.39,17.44,7.79,17.39,17.39,17.39c2.81,0,5.51-.69,7.85-1.86l27.99,25.13c-.21,1.06-.32,2.12-.32,3.23,0,6.94,4.08,12.94,10.02,15.69v42.99l-33.03,18.55v53.76l16.12-8.96,77.29-44.58v-120.07L126.04,11h0ZM69.21,160.71c-2.7,0-4.93-2.17-4.93-4.93s2.23-4.93,4.93-4.93,4.93,2.23,4.93,4.93-2.17,4.93-4.93,4.93ZM124.13,74.67c-2.7,0-4.93-2.17-4.93-4.88s2.23-4.93,4.93-4.93,4.93,2.17,4.93,4.93-2.17,4.88-4.93,4.88ZM177.09,108.76c2.7,0,4.93,2.17,4.93,4.93s-2.23,4.88-4.93,4.88-4.93-2.17-4.93-4.88,2.23-4.93,4.93-4.93Z"/>
  <path class="st0" d="M131,122.75c-3.02,0-5.88.8-8.38,2.17l-22.21-19.24c.42-1.43.64-2.97.64-4.51,0-9.6-7.79-17.44-17.39-17.44s-17.44,7.85-17.44,17.44,7.79,17.39,17.44,17.39c2.92,0,5.67-.69,8.06-1.96l22.42,19.4c-.37,1.33-.53,2.7-.53,4.14,0,9.65,7.79,17.44,17.39,17.44s17.44-7.79,17.44-17.44-7.79-17.39-17.44-17.39ZM83.65,106.11c-2.7,0-4.93-2.23-4.93-4.93s2.23-4.93,4.93-4.93,4.93,2.23,4.93,4.93-2.23,4.93-4.93,4.93ZM131,145.07c-2.7,0-4.93-2.17-4.93-4.93s2.23-4.93,4.93-4.93,4.93,2.23,4.93,4.93-2.17,4.93-4.93,4.93Z"/>
</svg>