<?xml version="1.0" encoding="UTF-8"?>
<svg id="Layer_1" xmlns="http://www.w3.org/2000/svg" version="1.1" viewBox="0 0 44 54">
  <!-- Generator: Adobe Illustrator 30.2.1, SVG Export Plug-In . SVG Version: 2.1.1 Build 1)  -->
  <defs>
    <style>
      .st0 {
        fill: #fff;
      }
    </style>
  </defs>
  <path class="st0" d="M22.27,2.57L2.66,13.9v22.65l17.61,10.16v-11.91l-5.52-4.2c.06-.23.09-.47.09-.72,0-1.81-1.47-3.28-3.29-3.28s-3.28,1.47-3.28,3.28,1.47,3.29,3.28,3.29c.6,0,1.17-.16,1.65-.45l4.45,3.38v5.42l-11.68-6.74V15.96L22.27,6.55l16.3,9.41v18.82l-11.67,6.73v-3.25l6.23-3.58v-9.71c1.2-.48,2.05-1.66,2.05-3.03,0-1.82-1.47-3.29-3.28-3.29-.63,0-1.23.18-1.73.5l-5.1-4.58c.08-.29.13-.59.13-.91,0-1.82-1.47-3.29-3.29-3.29s-3.28,1.47-3.28,3.29,1.47,3.28,3.28,3.28c.53,0,1.04-.13,1.48-.35l5.28,4.74c-.04.2-.06.4-.06.61,0,1.31.77,2.44,1.89,2.96v8.11l-6.23,3.5v10.14l3.04-1.69,14.58-8.41V13.9L22.27,2.57h0ZM11.55,30.81c-.51,0-.93-.41-.93-.93s.42-.93.93-.93.93.42.93.93-.41.93-.93.93ZM21.91,14.58c-.51,0-.93-.41-.93-.92s.42-.93.93-.93.93.41.93.93-.41.92-.93.92ZM31.9,21.01c.51,0,.93.41.93.93s-.42.92-.93.92-.93-.41-.93-.92.42-.93.93-.93Z"/>
  <path class="st0" d="M22.84,23.65c-.57,0-1.11.15-1.58.41l-4.19-3.63c.08-.27.12-.56.12-.85,0-1.81-1.47-3.29-3.28-3.29s-3.29,1.48-3.29,3.29,1.47,3.28,3.29,3.28c.55,0,1.07-.13,1.52-.37l4.23,3.66c-.07.25-.1.51-.1.78,0,1.82,1.47,3.29,3.28,3.29s3.29-1.47,3.29-3.29-1.47-3.28-3.29-3.28ZM13.91,20.51c-.51,0-.93-.42-.93-.93s.42-.93.93-.93.93.42.93.93-.42.93-.93.93ZM22.84,27.86c-.51,0-.93-.41-.93-.93s.42-.93.93-.93.93.42.93.93-.41.93-.93.93Z"/>
</svg>